<svg xmlns="http://www.w3.org/2000/svg" width="188.671" height="297" viewBox="0 0 188.671 297">
  <g id="Group_134" data-name="Group 134" transform="translate(-117 -3439)">
    <g id="Path_15" data-name="Path 15" transform="translate(234.281 3539.897) rotate(43)" fill="none" opacity="0.3">
      <path d="M22.356,0c.558,1.016,1.467,43.886,0,44.711C12.269,44.632,0,34.7,0,22.356S11.4-.078,22.356,0Z" stroke="none"/>
      <path d="M 20.56711769104004 2.084228515625 C 18.70106887817383 2.273502349853516 16.81962203979492 2.779582977294922 14.95345783233643 3.595684051513672 C 12.58820724487305 4.630043029785156 10.32623767852783 6.154403686523438 8.412087440490723 8.003963470458984 C 6.428386688232422 9.92071533203125 4.861566543579102 12.11002349853516 3.755147933959961 14.51108360290527 C 2.590517044067383 17.03847312927246 1.999998092651367 19.67774391174316 1.999998092651367 22.35558319091797 C 1.999998092651367 25.00578308105469 2.629327774047852 27.63362312316895 3.870517730712891 30.16611480712891 C 5.019847869873047 32.51121520996094 6.7103271484375 34.76058197021484 8.759197235107422 36.67106246948242 C 10.73219776153564 38.51079559326172 13.03389739990234 40.03943252563477 15.4154577255249 41.09171295166016 C 17.21934700012207 41.88875198364258 19.05026817321777 42.40376663208008 20.79185104370117 42.60968399047852 C 21.02221870422363 40.19724273681641 21.2452220916748 34.16036987304688 21.10945701599121 21.93331336975098 C 21.00735855102539 12.73889923095703 20.75990676879883 5.266551971435547 20.56711769104004 2.084228515625 M 22.22916793823242 -0.000415802001953125 C 22.2719612121582 -0.000415802001953125 22.31276512145996 -0.000270843505859375 22.35554695129395 3.4332275390625e-05 C 22.91331672668457 1.016403198242188 23.82265663146973 43.88604354858398 22.35554695129395 44.71112442016602 C 12.26881694793701 44.63238525390625 -1.9073486328125e-06 34.70221328735352 -1.9073486328125e-06 22.35558319091797 C -1.9073486328125e-06 10.05718231201172 11.31654644012451 -0.000415802001953125 22.22916793823242 -0.000415802001953125 Z" stroke="none" fill="#1dc5ff"/>
    </g>
    <g id="Ellipse_9" data-name="Ellipse 9" transform="translate(117 3704)" fill="none" stroke="#1dc5ff" stroke-width="2" opacity="0.3">
      <circle cx="16" cy="16" r="16" stroke="none"/>
      <circle cx="16" cy="16" r="15" fill="none"/>
    </g>
    <g id="Polygon_17" data-name="Polygon 17" transform="translate(273.671 3439)" fill="none" opacity="0.3">
      <path d="M16,0,32,27.317H0Z" stroke="none"/>
      <path d="M 15.99999904632568 3.957244873046875 L 3.489242553710938 25.31707763671875 L 28.51075553894043 25.31707763671875 L 15.99999904632568 3.957244873046875 M 15.99999904632568 -3.814697265625e-06 L 32 27.31707763671875 L -1.9073486328125e-06 27.31707763671875 L 15.99999904632568 -3.814697265625e-06 Z" stroke="none" fill="#6900ef"/>
    </g>
    <g id="Rectangle_60" data-name="Rectangle 60" transform="translate(172.718 3492.153) rotate(108)" fill="none" stroke="#f800c6" stroke-width="2" opacity="0.3">
      <rect width="28" height="28" stroke="none"/>
      <rect x="1" y="1" width="26" height="26" fill="none"/>
    </g>
  </g>
</svg>
